<!-- icon666.com - MILLIONS vector ICONS FREE --><svg id="Solid" viewBox="0 0 64 64" xmlns="http://www.w3.org/2000/svg"><path d="m32 5 3.7 6.35a20.91 20.91 0 0 0 -7.4 0z"></path><path d="m32 59-3.7-6.35a20.91 20.91 0 0 0 7.4 0z"></path><path d="m20 14.77a21 21 0 0 0 -5.23 5.23l-1.87-7.1z"></path><path d="m44 49.23a21 21 0 0 0 5.23-5.23l1.87 7.1z"></path><path d="m11.33 35.7-6.33-3.7 6.35-3.7a20.91 20.91 0 0 0 0 7.4z"></path><path d="m52.67 35.7a20.91 20.91 0 0 0 0-7.4l6.33 3.7z"></path><path d="m12.9 51.1 1.87-7.1a21 21 0 0 0 5.23 5.23z"></path><path d="m51.1 12.9-1.87 7.1a21 21 0 0 0 -5.23-5.23z"></path><path d="m32 49a17 17 0 1 1 17-17 17 17 0 0 1 -17 17z"></path></svg>